<svg width="188" height="376" viewBox="0 0 188 376" fill="white" xmlns="http://www.w3.org/2000/svg">
<path d="M136.791 62.6872C135.075 59.5839 132.548 57.0048 129.481 55.2253C126.413 53.4457 122.92 52.5325 119.374 52.583H69.3327C65.6062 52.5493 61.9445 53.5574 58.7604 55.4937C55.5763 57.4299 52.9964 60.2173 51.3119 63.5414C39.5202 87.1664 13.1869 144.312 10.8327 187.916L10.8083 187.975L10.7493 188L10.6904 188.024L10.666 188.083V323.416C10.666 334.467 15.0559 345.065 22.8699 352.879C30.6839 360.693 41.282 365.083 52.3327 365.083H135.666C146.717 365.083 157.315 360.693 165.129 352.879C172.943 345.065 177.333 334.467 177.333 323.416V188.062L177.27 188L177.208 187.937C175.124 138.146 148.708 84.4997 136.791 62.6872Z" stroke="black" stroke-width="20.8333"/>
<path d="M146.083 10.9165H41.9167C36.1637 10.9165 31.5 15.5802 31.5 21.3332V42.1665C31.5 47.9195 36.1637 52.5832 41.9167 52.5832H146.083C151.836 52.5832 156.5 47.9195 156.5 42.1665V21.3332C156.5 15.5802 151.836 10.9165 146.083 10.9165Z" stroke="black" stroke-width="20.8333"/>
<path d="M52.332 198.416V312.999" stroke="black" stroke-width="20.8333" stroke-linecap="round"/>
</svg>
